<svg xmlns="http://www.w3.org/2000/svg" viewBox="0 0 64 64" width="64" height="64"><defs><linearGradient id="jg" x1="0" y1="0" x2="0.3" y2="1"><stop offset="0" stop-color="#0E7A5C"></stop><stop offset="1" stop-color="#0A5C45"></stop></linearGradient><radialGradient id="gl" cx="0.5" cy="0.34" r="0.6"><stop offset="0" stop-color="#E8A93C" stop-opacity="0.32"></stop><stop offset="1" stop-color="#E8A93C" stop-opacity="0"></stop></radialGradient></defs><rect width="64" height="64" rx="14" fill="url(#jg)"></rect><rect width="64" height="64" rx="14" fill="url(#gl)"></rect><svg viewBox="30 8 60 82" x="1" y="1" width="62" height="62"><circle cx="60" cy="62" r="47" fill="#9B6B43"></circle><g><circle cx="60" cy="13" r="12" fill="#9B6B43"></circle><circle cx="90" cy="20" r="12" fill="#9B6B43"></circle><circle cx="106" cy="47" r="12" fill="#9B6B43"></circle><circle cx="106" cy="79" r="12" fill="#9B6B43"></circle><circle cx="90" cy="104" r="12" fill="#9B6B43"></circle><circle cx="60" cy="111" r="12" fill="#9B6B43"></circle><circle cx="30" cy="104" r="12" fill="#9B6B43"></circle><circle cx="14" cy="79" r="12" fill="#9B6B43"></circle><circle cx="14" cy="47" r="12" fill="#9B6B43"></circle><circle cx="30" cy="20" r="12" fill="#9B6B43"></circle></g><circle cx="60" cy="62" r="47" fill="none" stroke="#7A4F30" stroke-width="2" opacity="0.4"></circle><path d="M20 30c-6-10-4-22 4-26 6 8 6 18 3 27z" fill="#7A4F30"></path><path d="M100 30c6-10 4-22-4-26-6 8-6 18-3 27z" fill="#7A4F30"></path><path d="M22 31c-3-6-2-13 3-16 4 5 4 11 1 17z" fill="#C9985F"></path><path d="M98 31c3-6 2-13-3-16-4 5-4 11-1 17z" fill="#C9985F"></path><circle cx="60" cy="64" r="41" fill="#B27E4F"></circle><ellipse cx="60" cy="82" rx="30" ry="24" fill="#F3E4CC"></ellipse><circle cx="40" cy="100" r="9" fill="#F3E4CC"></circle><circle cx="60" cy="105" r="10" fill="#F3E4CC"></circle><circle cx="80" cy="100" r="9" fill="#F3E4CC"></circle><circle cx="34" cy="80" r="6" fill="#DE4A52" opacity="0.28"></circle><circle cx="86" cy="80" r="6" fill="#DE4A52" opacity="0.28"></circle><ellipse cx="60" cy="68" rx="7" ry="5.5" fill="#20282B"></ellipse><circle cx="44" cy="56" r="6.5" fill="#20282B"></circle><circle cx="76" cy="56" r="6.5" fill="#20282B"></circle><circle cx="46" cy="54" r="2" fill="#fff"></circle><circle cx="78" cy="54" r="2" fill="#fff"></circle><path d="M52 88q8 6 16 0" fill="none" stroke="#20282B" stroke-width="2.6" stroke-linecap="round"></path></svg></svg>